name ./resultDataOpenSim/trcMotMarkerGrf/sub09/grf-05-04.mot
datacolumns 19
datarows 10
range 1.90800000 1.94400000
endheader

                time	     ground_force_vx	     ground_force_vy	     ground_force_vz	     ground_force_px	     ground_force_py	     ground_force_pz	   l_ground_force_vx	   l_ground_force_vy	   l_ground_force_vz	   l_ground_force_px	   l_ground_force_py	   l_ground_force_pz	     ground_torque_x	     ground_torque_y	     ground_torque_z	   l_ground_torque_x	   l_ground_torque_y	   l_ground_torque_z	
          1.90800000	         -0.68768236	         39.91124164	         -0.19331079	          1.03825222	          0.00000000	          0.10689154	          0.00000000	          0.00000000	          0.00000000	          0.00000000	          0.00000000	          0.00000000	          0.00000000	          0.14150701	          0.00000000	          0.00000000	          0.00000000	          0.00000000	
          1.91200000	         -3.20008719	         33.92316609	         -2.66570940	          1.04203919	          0.00000000	          0.10981699	          0.00000000	          0.00000000	          0.00000000	          0.00000000	          0.00000000	          0.00000000	          0.00000000	          0.00595704	          0.00000000	          0.00000000	          0.00000000	          0.00000000	
          1.91600000	         -6.23220900	         29.40769615	         -4.40437496	          1.04771766	          0.00000000	          0.11127692	          0.00000000	          0.00000000	          0.00000000	          0.00000000	          0.00000000	          0.00000000	          0.00000000	         -0.04069413	          0.00000000	          0.00000000	          0.00000000	          0.00000000	
          1.92000000	         -9.50954385	         25.92411490	         -5.32859577	          1.05498411	          0.00000000	          0.11122651	          0.00000000	          0.00000000	          0.00000000	          0.00000000	          0.00000000	          0.00000000	          0.00000000	         -0.00585713	          0.00000000	          0.00000000	          0.00000000	          0.00000000	
          1.92400000	        -12.68191939	         23.04594707	         -5.44104206	          1.06341137	          0.00000000	          0.11029632	          0.00000000	          0.00000000	          0.00000000	          0.00000000	          0.00000000	          0.00000000	          0.00000000	          0.09288230	          0.00000000	          0.00000000	          0.00000000	          0.00000000	
          1.92800000	        -15.45372058	         20.49268657	         -4.84108578	          1.07172939	          0.00000000	          0.10870063	          0.00000000	          0.00000000	          0.00000000	          0.00000000	          0.00000000	          0.00000000	          0.00000000	          0.23307245	          0.00000000	          0.00000000	          0.00000000	          0.00000000	
          1.93200000	        -17.68430141	         18.14164189	         -3.71487269	          1.07709015	          0.00000000	          0.10603117	          0.00000000	          0.00000000	          0.00000000	          0.00000000	          0.00000000	          0.00000000	          0.00000000	          0.39316606	          0.00000000	          0.00000000	          0.00000000	          0.00000000	
          1.93600000	        -19.43289905	         15.93720715	         -2.30456859	          1.07619357	          0.00000000	          0.10178034	          0.00000000	          0.00000000	          0.00000000	          0.00000000	          0.00000000	          0.00000000	          0.00000000	          0.55642550	          0.00000000	          0.00000000	          0.00000000	          0.00000000	
          1.94000000	          0.00000000	          0.00000000	          0.00000000	          0.00000000	          0.00000000	          0.00000000	          0.00000000	          0.00000000	          0.00000000	          0.00000000	          0.00000000	          0.00000000	          0.00000000	          0.00000000	          0.00000000	          0.00000000	          0.00000000	          0.00000000	
          1.94400000	          0.00000000	          0.00000000	          0.00000000	          0.00000000	          0.00000000	          0.00000000	          0.00000000	          0.00000000	          0.00000000	          0.00000000	          0.00000000	          0.00000000	          0.00000000	          0.00000000	          0.00000000	          0.00000000	          0.00000000	          0.00000000	
